<svg width="46" height="54" viewBox="0 0 46 54" fill="none" xmlns="http://www.w3.org/2000/svg">
<path d="M34.6025 37.1475L35.0425 37.59L35.4875 37.1475C36.0098 36.6252 36.6299 36.2108 37.3124 35.9281C37.9949 35.6455 38.7263 35.5 39.465 35.5C40.2037 35.5 40.9351 35.6455 41.6176 35.9281C42.3001 36.2108 42.9202 36.6252 43.4425 37.1475C43.9648 37.6698 44.3792 38.2899 44.6619 38.9724C44.9445 39.6549 45.09 40.3863 45.09 41.125C45.09 41.8637 44.9445 42.5951 44.6619 43.2776C44.3792 43.9601 43.9648 44.5802 43.4425 45.1025L35.0425 53.5L26.6475 45.1025C25.5926 44.0476 25 42.6169 25 41.125C25 39.6331 25.5926 38.2024 26.6475 37.1475C27.7024 36.0926 29.1331 35.5 30.625 35.5C32.1169 35.5 33.5476 36.0926 34.6025 37.1475ZM20 33V53H0C6.02717e-05 47.8039 2.02234 42.8119 5.63867 39.0807C9.25501 35.3496 14.1815 33.1724 19.375 33.01L20 33ZM20 0.5C28.2875 0.5 35 7.2125 35 15.5C35 23.7875 28.2875 30.5 20 30.5C11.7125 30.5 5 23.7875 5 15.5C5 7.2125 11.7125 0.5 20 0.5Z" fill="#F2994A"/>
</svg>
