<svg width="50" height="50" viewBox="0 0 50 50" fill="none" xmlns="http://www.w3.org/2000/svg">
<path d="M25 22.5C28.3152 22.5 31.4946 23.817 33.8388 26.1612C36.183 28.5054 37.5 31.6848 37.5 35V50H12.5V35C12.5 31.6848 13.817 28.5054 16.1612 26.1612C18.5054 23.817 21.6848 22.5 25 22.5ZM8.22 30.015C7.82215 31.357 7.58712 32.7419 7.52 34.14L7.5 35V50H2.28292e-07V38.75C-0.000492018 36.5939 0.795071 34.5136 2.23409 32.908C3.6731 31.3025 5.65425 30.2847 7.7975 30.05L8.2225 30.015H8.22ZM41.78 30.015C44.0048 30.1506 46.094 31.1299 47.6215 32.7531C49.149 34.3763 49.9997 36.5211 50 38.75V50H42.5V35C42.5 33.2675 42.25 31.595 41.78 30.015ZM8.75 15C10.4076 15 11.9973 15.6585 13.1694 16.8306C14.3415 18.0027 15 19.5924 15 21.25C15 22.9076 14.3415 24.4973 13.1694 25.6694C11.9973 26.8415 10.4076 27.5 8.75 27.5C7.0924 27.5 5.50269 26.8415 4.33058 25.6694C3.15848 24.4973 2.5 22.9076 2.5 21.25C2.5 19.5924 3.15848 18.0027 4.33058 16.8306C5.50269 15.6585 7.0924 15 8.75 15V15ZM41.25 15C42.9076 15 44.4973 15.6585 45.6694 16.8306C46.8415 18.0027 47.5 19.5924 47.5 21.25C47.5 22.9076 46.8415 24.4973 45.6694 25.6694C44.4973 26.8415 42.9076 27.5 41.25 27.5C39.5924 27.5 38.0027 26.8415 36.8306 25.6694C35.6585 24.4973 35 22.9076 35 21.25C35 19.5924 35.6585 18.0027 36.8306 16.8306C38.0027 15.6585 39.5924 15 41.25 15V15ZM25 0C27.6522 0 30.1957 1.05357 32.0711 2.92893C33.9464 4.8043 35 7.34784 35 10C35 12.6522 33.9464 15.1957 32.0711 17.0711C30.1957 18.9464 27.6522 20 25 20C22.3478 20 19.8043 18.9464 17.9289 17.0711C16.0536 15.1957 15 12.6522 15 10C15 7.34784 16.0536 4.8043 17.9289 2.92893C19.8043 1.05357 22.3478 0 25 0V0Z" fill="#2D9CDB"/>
</svg>
