<svg width="10" height="11" viewBox="0 0 10 11" fill="none" xmlns="http://www.w3.org/2000/svg">
<path d="M2.5 5.5H6.25C7.13851 5.5 7.87237 4.83784 7.98501 3.98007C7.14426 3.85236 6.5 3.12642 6.5 2.25C6.5 1.2835 7.2835 0.5 8.25 0.5C9.2165 0.5 10 1.2835 10 2.25C10 3.13578 9.34191 3.86785 8.48798 3.98395C8.37096 5.11666 7.41364 6 6.25 6H2.5V7.01772C3.34807 7.13903 4 7.86838 4 8.75C4 9.7165 3.2165 10.5 2.25 10.5C1.2835 10.5 0.5 9.7165 0.5 8.75C0.5 7.86838 1.15193 7.13903 2 7.01772V3.98228C1.15193 3.86097 0.5 3.13162 0.5 2.25C0.5 1.2835 1.2835 0.5 2.25 0.5C3.2165 0.5 4 1.2835 4 2.25C4 3.13162 3.34807 3.86097 2.5 3.98228V5.5ZM1 8.75C1 9.44036 1.55964 10 2.25 10C2.94036 10 3.5 9.44036 3.5 8.75C3.5 8.05964 2.94036 7.5 2.25 7.5C1.55964 7.5 1 8.05964 1 8.75ZM1 2.25C1 2.94036 1.55964 3.5 2.25 3.5C2.94036 3.5 3.5 2.94036 3.5 2.25C3.5 1.55964 2.94036 1 2.25 1C1.55964 1 1 1.55964 1 2.25ZM8.25 1C7.55964 1 7 1.55964 7 2.25C7 2.94036 7.55964 3.5 8.25 3.5C8.94036 3.5 9.5 2.94036 9.5 2.25C9.5 1.55964 8.94036 1 8.25 1Z" fill="black"/>
</svg>
