<svg width="50" height="46" viewBox="0 0 50 46" fill="none" xmlns="http://www.w3.org/2000/svg">
<path d="M2.5 0.5H47.5C48.163 0.5 48.7989 0.763392 49.2678 1.23223C49.7366 1.70107 50 2.33696 50 3V43C50 43.663 49.7366 44.2989 49.2678 44.7678C48.7989 45.2366 48.163 45.5 47.5 45.5H2.5C1.83696 45.5 1.20107 45.2366 0.732233 44.7678C0.263392 44.2989 0 43.663 0 43V3C0 2.33696 0.263392 1.70107 0.732233 1.23223C1.20107 0.763392 1.83696 0.5 2.5 0.5V0.5ZM36.16 31.84L45 23L36.16 14.16L32.625 17.7L37.93 23L32.625 28.3025L36.16 31.84V31.84ZM12.07 23L17.375 17.6975L13.84 14.16L5 23L13.84 31.84L17.375 28.3L12.07 23ZM23.11 35.5L32.21 10.5H26.89L17.79 35.5H23.11Z" fill="#828282"/>
</svg>
