<svg width="46" height="54" viewBox="0 0 46 54" fill="none" xmlns="http://www.w3.org/2000/svg">
<path d="M25.5 47.5V53.75L18 48.75L10.5 53.75V47.5H9.25C6.92936 47.5 4.70376 46.5781 3.06282 44.9372C1.42187 43.2962 0.5 41.0706 0.5 38.75V7.5C0.5 5.51088 1.29018 3.60322 2.6967 2.1967C4.10322 0.790177 6.01088 0 8 0H43C43.663 0 44.2989 0.263392 44.7678 0.732233C45.2366 1.20107 45.5 1.83696 45.5 2.5V45C45.5 45.663 45.2366 46.2989 44.7678 46.7678C44.2989 47.2366 43.663 47.5 43 47.5H25.5ZM10.5 42.5V37.5H25.5V42.5H40.5V35H9.25C8.25544 35 7.30161 35.3951 6.59835 36.0984C5.89509 36.8016 5.5 37.7554 5.5 38.75C5.5 39.7446 5.89509 40.6984 6.59835 41.4016C7.30161 42.1049 8.25544 42.5 9.25 42.5H10.5ZM10.5 7.5V12.5H15.5V7.5H10.5ZM10.5 15V20H15.5V15H10.5ZM10.5 22.5V27.5H15.5V22.5H10.5Z" fill="#219653"/>
</svg>
